<svg font-family="Times New Roman, Georgia, serif" fill="#293241" width="548" height="452" viewBox="0 0 548 452" xmlns="http://www.w3.org/2000/svg" role="img" aria-labelledby="kd-defense-gain-private-title kd-defense-gain-private-desc"><title id="kd-defense-gain-private-title">Gain over matched baselines: private domain</title><desc id="kd-defense-gain-private-desc">Approximate two-sided 95% paired-t confidence interval, reconstructed from reported rounded mean differences and t statistics. Not standard deviation. Pale bars are not significant at the 0.05 level; hatched bars are shuffled-supervision controls. The first six bars use the E0 baseline and the final two use E0noaug. The gray seed-variation band from the slide was removed because it is not a common noise estimate for both domains.</desc><defs><pattern id="kd-defense-gain-private-hat" width="6" height="6" patternUnits="userSpaceOnUse" patternTransform="rotate(45)"><rect width="6" height="6" fill="#9aa6b6"/><line x1="0" y1="0" x2="0" y2="6" stroke="#5b6470" stroke-width="1.6"/></pattern></defs><text x="305" y="18" font-size="17" font-weight="bold" text-anchor="middle">(b) Private domain</text><text x="247" y="39" font-size="15" fill="#52606d" text-anchor="middle">Same architecture</text><text x="478" y="39" font-size="15" fill="#52606d" text-anchor="middle">Cross</text><line x1="74" y1="386.0" x2="536" y2="386.0" stroke="#e6eaf0" stroke-width="1"/><text x="66" y="391.0" font-size="14" fill="#52606d" text-anchor="end">-0.04</text><line x1="74" y1="348.0" x2="536" y2="348.0" stroke="#e6eaf0" stroke-width="1"/><text x="66" y="353.0" font-size="14" fill="#52606d" text-anchor="end">-0.03</text><line x1="74" y1="310.0" x2="536" y2="310.0" stroke="#e6eaf0" stroke-width="1"/><text x="66" y="315.0" font-size="14" fill="#52606d" text-anchor="end">-0.02</text><line x1="74" y1="272.1" x2="536" y2="272.1" stroke="#e6eaf0" stroke-width="1"/><text x="66" y="277.1" font-size="14" fill="#52606d" text-anchor="end">-0.01</text><line x1="74" y1="234.1" x2="536" y2="234.1" stroke="#e6eaf0" stroke-width="1"/><text x="66" y="239.1" font-size="14" fill="#52606d" text-anchor="end">0.00</text><line x1="74" y1="196.1" x2="536" y2="196.1" stroke="#e6eaf0" stroke-width="1"/><text x="66" y="201.1" font-size="14" fill="#52606d" text-anchor="end">0.01</text><line x1="74" y1="158.1" x2="536" y2="158.1" stroke="#e6eaf0" stroke-width="1"/><text x="66" y="163.1" font-size="14" fill="#52606d" text-anchor="end">0.02</text><line x1="74" y1="120.2" x2="536" y2="120.2" stroke="#e6eaf0" stroke-width="1"/><text x="66" y="125.2" font-size="14" fill="#52606d" text-anchor="end">0.03</text><line x1="74" y1="82.2" x2="536" y2="82.2" stroke="#e6eaf0" stroke-width="1"/><text x="66" y="87.2" font-size="14" fill="#52606d" text-anchor="end">0.04</text><line x1="74" y1="234.1" x2="536" y2="234.1" stroke="#3a4250" stroke-width="1.3"/><line x1="420.5" y1="48" x2="420.5" y2="386" stroke="#b6bdc7" stroke-width="1" stroke-dasharray="6 5"/><g id="kd-defense-gain-private-gr-E1"><rect fill-opacity="0.32" x="85.0" y="218.9" width="35.8" height="15.2" fill="#2c7fb8" stroke="#3a4250" stroke-width="0.8"/><line x1="102.9" y1="190.0" x2="102.9" y2="247.8" stroke="#293241" stroke-width="1.3"/><line x1="97.9" y1="190.0" x2="107.9" y2="190.0" stroke="#293241" stroke-width="1.3"/><line x1="97.9" y1="247.8" x2="107.9" y2="247.8" stroke="#293241" stroke-width="1.3"/></g><text x="106.9" y="402" font-size="14.5" fill="#293241" text-anchor="end" transform="rotate(-35 106.9 402)">E1</text><g id="kd-defense-gain-private-gr-E1mlam"><rect fill-opacity="0.32" x="142.7" y="218.9" width="35.8" height="15.2" fill="#2c7fb8" stroke="#3a4250" stroke-width="0.8"/><line x1="160.6" y1="198.0" x2="160.6" y2="239.8" stroke="#293241" stroke-width="1.3"/><line x1="155.6" y1="198.0" x2="165.6" y2="198.0" stroke="#293241" stroke-width="1.3"/><line x1="155.6" y1="239.8" x2="165.6" y2="239.8" stroke="#293241" stroke-width="1.3"/></g><text x="164.6" y="402" font-size="14.5" fill="#293241" text-anchor="end" transform="rotate(-35 164.6 402)">E1mlam</text><g id="kd-defense-gain-private-gr-E1fg"><rect x="200.5" y="218.9" width="35.8" height="15.2" fill="#2c7fb8" stroke="#3a4250" stroke-width="0.8"/><line x1="218.4" y1="211.9" x2="218.4" y2="225.9" stroke="#293241" stroke-width="1.3"/><line x1="213.4" y1="211.9" x2="223.4" y2="211.9" stroke="#293241" stroke-width="1.3"/><line x1="213.4" y1="225.9" x2="223.4" y2="225.9" stroke="#293241" stroke-width="1.3"/></g><text x="222.4" y="402" font-size="14.5" fill="#293241" text-anchor="end" transform="rotate(-35 222.4 402)">E1fg</text><g id="kd-defense-gain-private-gr-E1fgbox"><rect x="258.2" y="207.5" width="35.8" height="26.6" fill="#2c7fb8" stroke="#3a4250" stroke-width="0.8"/><line x1="276.1" y1="186.2" x2="276.1" y2="228.8" stroke="#293241" stroke-width="1.3"/><line x1="271.1" y1="186.2" x2="281.1" y2="186.2" stroke="#293241" stroke-width="1.3"/><line x1="271.1" y1="228.8" x2="281.1" y2="228.8" stroke="#293241" stroke-width="1.3"/></g><text x="280.1" y="402" font-size="14.5" fill="#293241" text-anchor="end" transform="rotate(-35 280.1 402)">E1fgbox</text><g id="kd-defense-gain-private-gr-E1seg"><rect fill-opacity="0.32" x="316.0" y="218.9" width="35.8" height="15.2" fill="#2c7fb8" stroke="#3a4250" stroke-width="0.8"/><line x1="333.9" y1="193.8" x2="333.9" y2="244.0" stroke="#293241" stroke-width="1.3"/><line x1="328.9" y1="193.8" x2="338.9" y2="193.8" stroke="#293241" stroke-width="1.3"/><line x1="328.9" y1="244.0" x2="338.9" y2="244.0" stroke="#293241" stroke-width="1.3"/></g><text x="337.9" y="402" font-size="14.5" fill="#293241" text-anchor="end" transform="rotate(-35 337.9 402)">E1seg</text><g id="kd-defense-gain-private-gr-E1ctrl"><rect fill-opacity="0.32" x="373.7" y="218.9" width="35.8" height="15.2" fill="url(#kd-defense-gain-private-hat)" stroke="#3a4250" stroke-width="0.8"/><line x1="391.6" y1="182.2" x2="391.6" y2="255.6" stroke="#293241" stroke-width="1.3"/><line x1="386.6" y1="182.2" x2="396.6" y2="182.2" stroke="#293241" stroke-width="1.3"/><line x1="386.6" y1="255.6" x2="396.6" y2="255.6" stroke="#293241" stroke-width="1.3"/></g><text x="395.6" y="402" font-size="14.5" fill="#293241" text-anchor="end" transform="rotate(-35 395.6 402)">E1ctrl</text><g id="kd-defense-gain-private-gr-E4off"><rect fill-opacity="0.32" x="431.5" y="173.3" width="35.8" height="60.8" fill="#2ca25f" stroke="#3a4250" stroke-width="0.8"/><line x1="449.4" y1="60.9" x2="449.4" y2="285.8" stroke="#293241" stroke-width="1.3"/><line x1="444.4" y1="60.9" x2="454.4" y2="60.9" stroke="#293241" stroke-width="1.3"/><line x1="444.4" y1="285.8" x2="454.4" y2="285.8" stroke="#293241" stroke-width="1.3"/></g><text x="453.4" y="402" font-size="14.5" fill="#293241" text-anchor="end" transform="rotate(-35 453.4 402)">E4off</text><g id="kd-defense-gain-private-gr-E4ctrl"><rect x="489.2" y="234.1" width="35.8" height="94.9" fill="url(#kd-defense-gain-private-hat)" stroke="#3a4250" stroke-width="0.8"/><line x1="507.1" y1="285.0" x2="507.1" y2="373.1" stroke="#293241" stroke-width="1.3"/><line x1="502.1" y1="285.0" x2="512.1" y2="285.0" stroke="#293241" stroke-width="1.3"/><line x1="502.1" y1="373.1" x2="512.1" y2="373.1" stroke="#293241" stroke-width="1.3"/></g><text x="511.1" y="402" font-size="14.5" fill="#293241" text-anchor="end" transform="rotate(-35 511.1 402)">E4ctrl</text><rect x="74" y="48" width="462" height="338" fill="none" stroke="#9aa6b6" stroke-width="1"/><text x="18" y="217" font-size="15.5" fill="#293241" text-anchor="middle" transform="rotate(-90 18 217)">&#916; mAP50-95 (gain over baseline)</text></svg>
