{"asset":{"version":"2.0","generator":"Auto Inspector recorded-data fixture"},"scene":0,"scenes":[{"nodes":[0,1,2,3,4,5,6,7,8,9,10,11,12,13,14,15,16,17,18,19,20,21,22,23,24,25,26,27,28,29,30,31]}],"nodes":[{"name":"F01","mesh":0,"translation":[0,1.4036787,0],"extras":{"layer":"floor"}},{"name":"W01","mesh":1,"translation":[0,1.4036787,0],"extras":{"layer":"wall"}},{"name":"W02","mesh":2,"translation":[0,1.4036787,0],"extras":{"layer":"wall"}},{"name":"W03","mesh":3,"translation":[0,1.4036787,0],"extras":{"layer":"wall"}},{"name":"W04","mesh":4,"translation":[0,1.4036787,0],"extras":{"layer":"wall"}},{"name":"W05","mesh":5,"translation":[0,1.4036787,0],"extras":{"layer":"wall"}},{"name":"W06","mesh":6,"translation":[0,1.4036787,0],"extras":{"layer":"wall"}},{"name":"W07","mesh":7,"translation":[0,1.4036787,0],"extras":{"layer":"wall"}},{"name":"W08","mesh":8,"translation":[0,1.4036787,0],"extras":{"layer":"wall"}},{"name":"W09","mesh":9,"translation":[0,1.4036787,0],"extras":{"layer":"wall"}},{"name":"W10","mesh":10,"translation":[0,1.4036787,0],"extras":{"layer":"wall"}},{"name":"OBJ01","mesh":11,"translation":[0,1.4036787,0],"extras":{"layer":"object"}},{"name":"OBJ02","mesh":12,"translation":[0,1.4036787,0],"extras":{"layer":"object"}},{"name":"OBJ03","mesh":13,"translation":[0,1.4036787,0],"extras":{"layer":"object"}},{"name":"OBJ04","mesh":14,"translation":[0,1.4036787,0],"extras":{"layer":"object"}},{"name":"OBJ05","mesh":15,"translation":[0,1.4036787,0],"extras":{"layer":"object"}},{"name":"OBJ06","mesh":16,"translation":[0,1.4036787,0],"extras":{"layer":"object"}},{"name":"OBJ07","mesh":17,"translation":[0,1.4036787,0],"extras":{"layer":"object"}},{"name":"OBJ08","mesh":18,"translation":[0,1.4036787,0],"extras":{"layer":"object"}},{"name":"OBJ09","mesh":19,"translation":[0,1.4036787,0],"extras":{"layer":"object"}},{"name":"OBJ10","mesh":20,"translation":[0,1.4036787,0],"extras":{"layer":"object"}},{"name":"record-04","mesh":21,"translation":[0,1.4036787,0],"extras":{"layer":"marker"}},{"name":"record-05","mesh":22,"translation":[0,1.4036787,0],"extras":{"layer":"marker"}},{"name":"record-06","mesh":23,"translation":[0,1.4036787,0],"extras":{"layer":"marker"}},{"name":"record-07","mesh":24,"translation":[0,1.4036787,0],"extras":{"layer":"marker"}},{"name":"record-08","mesh":25,"translation":[0,1.4036787,0],"extras":{"layer":"marker"}},{"name":"record-09","mesh":26,"translation":[0,1.4036787,0],"extras":{"layer":"marker"}},{"name":"record-10","mesh":27,"translation":[0,1.4036787,0],"extras":{"layer":"marker"}},{"name":"record-11","mesh":28,"translation":[0,1.4036787,0],"extras":{"layer":"marker"}},{"name":"record-12","mesh":29,"translation":[0,1.4036787,0],"extras":{"layer":"marker"}},{"name":"record-13","mesh":30,"translation":[0,1.4036787,0],"extras":{"layer":"marker"}},{"name":"record-14","mesh":31,"translation":[0,1.4036787,0],"extras":{"layer":"marker"}}],"meshes":[{"name":"F01","primitives":[{"attributes":{"POSITION":0,"NORMAL":1},"material":0}]},{"name":"W01","primitives":[{"attributes":{"POSITION":2,"NORMAL":3},"material":1}]},{"name":"W02","primitives":[{"attributes":{"POSITION":4,"NORMAL":5},"material":1}]},{"name":"W03","primitives":[{"attributes":{"POSITION":6,"NORMAL":7},"material":1}]},{"name":"W04","primitives":[{"attributes":{"POSITION":8,"NORMAL":9},"material":1}]},{"name":"W05","primitives":[{"attributes":{"POSITION":10,"NORMAL":11},"material":1}]},{"name":"W06","primitives":[{"attributes":{"POSITION":12,"NORMAL":13},"material":1}]},{"name":"W07","primitives":[{"attributes":{"POSITION":14,"NORMAL":15},"material":1}]},{"name":"W08","primitives":[{"attributes":{"POSITION":16,"NORMAL":17},"material":1}]},{"name":"W09","primitives":[{"attributes":{"POSITION":18,"NORMAL":19},"material":1}]},{"name":"W10","primitives":[{"attributes":{"POSITION":20,"NORMAL":21},"material":1}]},{"name":"OBJ01","primitives":[{"attributes":{"POSITION":22,"NORMAL":23},"material":2}]},{"name":"OBJ02","primitives":[{"attributes":{"POSITION":24,"NORMAL":25},"material":2}]},{"name":"OBJ03","primitives":[{"attributes":{"POSITION":26,"NORMAL":27},"material":2}]},{"name":"OBJ04","primitives":[{"attributes":{"POSITION":28,"NORMAL":29},"material":2}]},{"name":"OBJ05","primitives":[{"attributes":{"POSITION":30,"NORMAL":31},"material":2}]},{"name":"OBJ06","primitives":[{"attributes":{"POSITION":32,"NORMAL":33},"material":2}]},{"name":"OBJ07","primitives":[{"attributes":{"POSITION":34,"NORMAL":35},"material":2}]},{"name":"OBJ08","primitives":[{"attributes":{"POSITION":36,"NORMAL":37},"material":2}]},{"name":"OBJ09","primitives":[{"attributes":{"POSITION":38,"NORMAL":39},"material":2}]},{"name":"OBJ10","primitives":[{"attributes":{"POSITION":40,"NORMAL":41},"material":2}]},{"name":"record-04","primitives":[{"attributes":{"POSITION":42,"NORMAL":43},"material":3}]},{"name":"record-05","primitives":[{"attributes":{"POSITION":44,"NORMAL":45},"material":3}]},{"name":"record-06","primitives":[{"attributes":{"POSITION":46,"NORMAL":47},"material":3}]},{"name":"record-07","primitives":[{"attributes":{"POSITION":48,"NORMAL":49},"material":3}]},{"name":"record-08","primitives":[{"attributes":{"POSITION":50,"NORMAL":51},"material":3}]},{"name":"record-09","primitives":[{"attributes":{"POSITION":52,"NORMAL":53},"material":3}]},{"name":"record-10","primitives":[{"attributes":{"POSITION":54,"NORMAL":55},"material":3}]},{"name":"record-11","primitives":[{"attributes":{"POSITION":56,"NORMAL":57},"material":3}]},{"name":"record-12","primitives":[{"attributes":{"POSITION":58,"NORMAL":59},"material":3}]},{"name":"record-13","primitives":[{"attributes":{"POSITION":60,"NORMAL":61},"material":3}]},{"name":"record-14","primitives":[{"attributes":{"POSITION":62,"NORMAL":63},"material":3}]}],"bufferViews":[{"buffer":0,"byteOffset":0,"byteLength":216,"target":34962},{"buffer":0,"byteOffset":216,"byteLength":216,"target":34962},{"buffer":0,"byteOffset":432,"byteLength":432,"target":34962},{"buffer":0,"byteOffset":864,"byteLength":432,"target":34962},{"buffer":0,"byteOffset":1296,"byteLength":3456,"target":34962},{"buffer":0,"byteOffset":4752,"byteLength":3456,"target":34962},{"buffer":0,"byteOffset":8208,"byteLength":2160,"target":34962},{"buffer":0,"byteOffset":10368,"byteLength":2160,"target":34962},{"buffer":0,"byteOffset":12528,"byteLength":432,"target":34962},{"buffer":0,"byteOffset":12960,"byteLength":432,"target":34962},{"buffer":0,"byteOffset":13392,"byteLength":432,"target":34962},{"buffer":0,"byteOffset":13824,"byteLength":432,"target":34962},{"buffer":0,"byteOffset":14256,"byteLength":432,"target":34962},{"buffer":0,"byteOffset":14688,"byteLength":432,"target":34962},{"buffer":0,"byteOffset":15120,"byteLength":2160,"target":34962},{"buffer":0,"byteOffset":17280,"byteLength":2160,"target":34962},{"buffer":0,"byteOffset":19440,"byteLength":432,"target":34962},{"buffer":0,"byteOffset":19872,"byteLength":432,"target":34962},{"buffer":0,"byteOffset":20304,"byteLength":432,"target":34962},{"buffer":0,"byteOffset":20736,"byteLength":432,"target":34962},{"buffer":0,"byteOffset":21168,"byteLength":432,"target":34962},{"buffer":0,"byteOffset":21600,"byteLength":432,"target":34962},{"buffer":0,"byteOffset":22032,"byteLength":432,"target":34962},{"buffer":0,"byteOffset":22464,"byteLength":432,"target":34962},{"buffer":0,"byteOffset":22896,"byteLength":432,"target":34962},{"buffer":0,"byteOffset":23328,"byteLength":432,"target":34962},{"buffer":0,"byteOffset":23760,"byteLength":432,"target":34962},{"buffer":0,"byteOffset":24192,"byteLength":432,"target":34962},{"buffer":0,"byteOffset":24624,"byteLength":432,"target":34962},{"buffer":0,"byteOffset":25056,"byteLength":432,"target":34962},{"buffer":0,"byteOffset":25488,"byteLength":432,"target":34962},{"buffer":0,"byteOffset":25920,"byteLength":432,"target":34962},{"buffer":0,"byteOffset":26352,"byteLength":432,"target":34962},{"buffer":0,"byteOffset":26784,"byteLength":432,"target":34962},{"buffer":0,"byteOffset":27216,"byteLength":432,"target":34962},{"buffer":0,"byteOffset":27648,"byteLength":432,"target":34962},{"buffer":0,"byteOffset":28080,"byteLength":432,"target":34962},{"buffer":0,"byteOffset":28512,"byteLength":432,"target":34962},{"buffer":0,"byteOffset":28944,"byteLength":432,"target":34962},{"buffer":0,"byteOffset":29376,"byteLength":432,"target":34962},{"buffer":0,"byteOffset":29808,"byteLength":432,"target":34962},{"buffer":0,"byteOffset":30240,"byteLength":432,"target":34962},{"buffer":0,"byteOffset":30672,"byteLength":288,"target":34962},{"buffer":0,"byteOffset":30960,"byteLength":288,"target":34962},{"buffer":0,"byteOffset":31248,"byteLength":288,"target":34962},{"buffer":0,"byteOffset":31536,"byteLength":288,"target":34962},{"buffer":0,"byteOffset":31824,"byteLength":288,"target":34962},{"buffer":0,"byteOffset":32112,"byteLength":288,"target":34962},{"buffer":0,"byteOffset":32400,"byteLength":288,"target":34962},{"buffer":0,"byteOffset":32688,"byteLength":288,"target":34962},{"buffer":0,"byteOffset":32976,"byteLength":288,"target":34962},{"buffer":0,"byteOffset":33264,"byteLength":288,"target":34962},{"buffer":0,"byteOffset":33552,"byteLength":288,"target":34962},{"buffer":0,"byteOffset":33840,"byteLength":288,"target":34962},{"buffer":0,"byteOffset":34128,"byteLength":288,"target":34962},{"buffer":0,"byteOffset":34416,"byteLength":288,"target":34962},{"buffer":0,"byteOffset":34704,"byteLength":288,"target":34962},{"buffer":0,"byteOffset":34992,"byteLength":288,"target":34962},{"buffer":0,"byteOffset":35280,"byteLength":288,"target":34962},{"buffer":0,"byteOffset":35568,"byteLength":288,"target":34962},{"buffer":0,"byteOffset":35856,"byteLength":288,"target":34962},{"buffer":0,"byteOffset":36144,"byteLength":288,"target":34962},{"buffer":0,"byteOffset":36432,"byteLength":288,"target":34962},{"buffer":0,"byteOffset":36720,"byteLength":288,"target":34962}],"accessors":[{"bufferView":0,"componentType":5126,"count":18,"type":"VEC3","min":[-3.9613372589604126,-1.4036787,-2.48080251026732],"max":[1.6788957698504106,-1.4036787,3.87016817961624]},{"bufferView":1,"componentType":5126,"count":18,"type":"VEC3","min":[0.0,-1.0,0.0],"max":[0.0,-1.0,0.0]},{"bufferView":2,"componentType":5126,"count":36,"type":"VEC3","min":[-0.742273529910419,-1.40367877607133,-2.0036483077443097],"max":[-0.37921135008958096,1.23774808807133,-0.39990209225569007]},{"bufferView":3,"componentType":5126,"count":36,"type":"VEC3","min":[-0.98224824772365,-1.0,-0.9822482514087642],"max":[0.98224824772365,1.0,0.9822482514087635]},{"bufferView":4,"componentType":5126,"count":288,"type":"VEC3","min":[-2.942278607314175,-1.4036786298282902,-2.510269975083344],"max":[0.811915807314175,0.93537822982829,-1.736523824916656]},{"bufferView":5,"componentType":5126,"count":288,"type":"VEC3","min":[-0.9822482276217948,-1.0,-0.9822482293812151],"max":[0.9822482276217948,1.0,0.9822482293812151]},{"bufferView":6,"componentType":5126,"count":180,"type":"VEC3","min":[-3.24640605798968,-1.40367877607133,-0.917778554560128],"max":[-0.7071785420103203,1.23774808807133,-0.37606204543987204]},{"bufferView":7,"componentType":5126,"count":180,"type":"VEC3","min":[-0.9822482421959794,-1.0,-0.9822482458810934],"max":[0.9822482421959794,1.0,0.9822482458810934]},{"bufferView":8,"componentType":5126,"count":36,"type":"VEC3","min":[-3.9908053597659197,-1.40367877607133,-2.4864299948535997],"max":[-2.90718384023408,1.23774808807133,2.8903520148536]},{"bufferView":9,"componentType":5126,"count":36,"type":"VEC3","min":[-0.98224822209412,-1.0,-0.9822482257792365],"max":[0.98224822209412,1.0,0.9822482257792365]},{"bufferView":10,"componentType":5126,"count":36,"type":"VEC3","min":[0.23232791637000055,-1.40367877607133,-1.7716188168966451],"max":[0.8357559636299996,1.23774808807133,1.090745896896645]},{"bufferView":11,"componentType":5126,"count":36,"type":"VEC3","min":[-0.982248236668308,-1.0,-0.9822482403534222],"max":[0.982248236668308,1.0,0.9822482403534222]},{"bufferView":12,"componentType":5126,"count":36,"type":"VEC3","min":[0.2561678436649,-1.40367877607133,1.0556506838074349],"max":[1.6845232763351001,1.23774808807133,1.385217716192565]},{"bufferView":13,"componentType":5126,"count":36,"type":"VEC3","min":[-0.9822482147238868,-1.0,-0.9822482147238867],"max":[0.9822482147238868,1.0,0.9822482147238867]},{"bufferView":14,"componentType":5126,"count":180,"type":"VEC3","min":[-3.96696510000056,-1.40367877607133,2.8552570446900365],"max":[1.0736185000005598,1.23774808807133,3.874672955309964]},{"bufferView":15,"componentType":5126,"count":180,"type":"VEC3","min":[-0.9822482147238876,-1.0,-0.9822482147238867],"max":[0.9822482147238876,1.0,0.9822482147238868]},{"bufferView":16,"componentType":5126,"count":36,"type":"VEC3","min":[1.102715603733686,-1.40367877607133,3.604444202766237],"max":[1.2446819962663138,1.23774808807133,3.6883417972337633]},{"bufferView":17,"componentType":5126,"count":36,"type":"VEC3","min":[-0.9822482220941203,-1.0,-0.9822482257792361],"max":[0.9822482220941203,1.0,0.9822482257792361]},{"bufferView":18,"componentType":5126,"count":36,"type":"VEC3","min":[1.0385237043717606,-1.40367877607133,3.6282846341470325],"max":[1.1378106956282394,1.23774808807133,3.850833365852967]},{"bufferView":19,"componentType":5126,"count":36,"type":"VEC3","min":[-0.9822481272341448,-1.0,-0.9822481262809768],"max":[0.9822481272341448,1.0,0.9822481262809768]},{"bufferView":20,"componentType":5126,"count":36,"type":"VEC3","min":[1.2095870652734124,-1.40367877607133,1.3501231057978749],"max":[1.7083631347265875,1.23774808807133,3.6645024942021247]},{"bufferView":21,"componentType":5126,"count":36,"type":"VEC3","min":[-0.9822482366683079,-1.0,-0.9822482403534222],"max":[0.9822482366683079,1.0,0.9822482403534222]},{"bufferView":22,"componentType":5126,"count":36,"type":"VEC3","min":[-3.649683402958365,-1.4036787999999998,0.4293870675753949],"max":[-1.5340901970416352,-0.8695617999999999,2.278023532424605]},{"bufferView":23,"componentType":5126,"count":36,"type":"VEC3","min":[-0.9822482053448214,-1.0,-0.9822482053448214],"max":[0.9822482053448214,1.0,0.9822482053448214]},{"bufferView":24,"componentType":5126,"count":36,"type":"VEC3","min":[-1.228949450200465,-1.40367865,2.130542853505154],"max":[-0.12409826979953498,-0.55441615,3.571006746494846]},{"bufferView":25,"componentType":5126,"count":36,"type":"VEC3","min":[-0.9822481686598962,-1.0,-0.9822481686598962],"max":[0.9822481686598962,1.0,0.9822481686598962]},{"bufferView":26,"componentType":5126,"count":36,"type":"VEC3","min":[-3.4078363202955737,-1.4036787,-0.8883111882157885],"max":[-2.6319704797044263,0.33712489999999995,0.10271272821578847]},{"bufferView":27,"componentType":5126,"count":36,"type":"VEC3","min":[-0.9822481943726022,-1.0,-0.9822481943726024],"max":[0.9822481943726022,1.0,0.9822481943726024]},{"bufferView":28,"componentType":5126,"count":36,"type":"VEC3","min":[0.46183538386965495,-1.40367878,1.139812713080895],"max":[1.544958816130345,-0.58540808,1.782345486919105]},{"bufferView":29,"componentType":5126,"count":36,"type":"VEC3","min":[-0.9822482018259748,-1.0,-0.9822482018259749],"max":[0.9822482018259748,1.0,0.9822482018259749]},{"bufferView":30,"componentType":5126,"count":36,"type":"VEC3","min":[0.11868779136650365,-1.40367867,2.6583230763194576],"max":[0.8419174686334964,-0.88793053,3.668048123680542]},{"bufferView":31,"componentType":5126,"count":36,"type":"VEC3","min":[-0.9822481835666487,-1.0,-0.9822481835666484],"max":[0.9822481835666487,1.0,0.9822481835666484]},{"bufferView":32,"componentType":5126,"count":36,"type":"VEC3","min":[0.8117361489825059,-1.4036787480278206,1.649453898023228],"max":[1.401265651017494,-0.5046061519721794,2.295397501976772]},{"bufferView":33,"componentType":5126,"count":36,"type":"VEC3","min":[-0.9685748937940447,-1.0,-0.968574895162193],"max":[0.9685748937940448,1.0,0.968574895162193]},{"bufferView":34,"componentType":5126,"count":36,"type":"VEC3","min":[0.6381591361910784,-1.4036787099999999,3.2280029467902325],"max":[1.2672278638089214,-0.55492061,3.8637386532097673]},{"bufferView":35,"componentType":5126,"count":36,"type":"VEC3","min":[-0.9822482054279572,-1.0,-0.9822482054279572],"max":[0.9822482054279572,1.0,0.9822482054279572]},{"bufferView":36,"componentType":5126,"count":36,"type":"VEC3","min":[-1.293807369149215,-1.403678625831115,-2.1106290574069244],"max":[-0.5793616908507851,-0.5980491741688849,-1.5916479425930756]},{"bufferView":37,"componentType":5126,"count":36,"type":"VEC3","min":[-0.9822481725112857,-1.0,-0.9822481741875778],"max":[0.9822481725112857,1.0,0.982248174187578]},{"bufferView":38,"componentType":5126,"count":36,"type":"VEC3","min":[-2.002601623341179,-1.40367855,-2.2386494964221124],"max":[-1.458443376658821,-0.6565972499999999,-1.5242479035778878]},{"bufferView":39,"componentType":5126,"count":36,"type":"VEC3","min":[-0.9822481475023317,-1.0,-0.982248148557989],"max":[0.9822481475023317,1.0,0.982248148557989]},{"bufferView":40,"componentType":5126,"count":36,"type":"VEC3","min":[-1.19676711349604,-0.88804912,-2.063704011534627],"max":[-0.61445674650396,-0.59804916,-1.6267427884653731]},{"bufferView":41,"componentType":5126,"count":36,"type":"VEC3","min":[-0.982248183400379,-1.0,-0.9822481834003791],"max":[0.9822481834003791,1.0,0.9822481834003791]},{"bufferView":42,"componentType":5126,"count":24,"type":"VEC3","min":[-1.7154695500000001,0.23884410250000002,-0.5846207050000001],"max":[-1.63546955,0.3188441025,-0.504620705]},{"bufferView":43,"componentType":5126,"count":24,"type":"VEC3","min":[-0.5773502691896256,-0.577350269189626,-0.5773502691896256],"max":[0.5773502691896256,0.5773502691896263,0.5773502691896256]},{"bufferView":44,"componentType":5126,"count":24,"type":"VEC3","min":[-1.60086495,0.20480989,-0.5908744],"max":[-1.52086495,0.28480989,-0.5108744]},{"bufferView":45,"componentType":5126,"count":24,"type":"VEC3","min":[-0.5773502691896256,-0.577350269189626,-0.5773502691896256],"max":[0.5773502691896256,0.577350269189626,0.5773502691896256]},{"bufferView":46,"componentType":5126,"count":24,"type":"VEC3","min":[-3.469143375,0.2035938875,0.049276832],"max":[-3.3891433749999997,0.2835938875,0.129276832]},{"bufferView":47,"componentType":5126,"count":24,"type":"VEC3","min":[-0.5773502691896255,-0.5773502691896258,-0.577350269189626],"max":[0.5773502691896255,0.5773502691896262,0.5773502691896258]},{"bufferView":48,"componentType":5126,"count":24,"type":"VEC3","min":[-3.4679471,-0.0010972647500000002,0.046173493749999996],"max":[-3.3879471,0.07890273525,0.12617349375]},{"bufferView":49,"componentType":5126,"count":24,"type":"VEC3","min":[-0.5773502691896255,-0.577350269189626,-0.577350269189626],"max":[0.5773502691896255,0.5773502691896261,0.5773502691896258]},{"bufferView":50,"componentType":5126,"count":24,"type":"VEC3","min":[-1.37188115,0.10898149874999999,3.367576975],"max":[-1.29188115,0.18898149875,3.447576975]},{"bufferView":51,"componentType":5126,"count":24,"type":"VEC3","min":[-0.5773502691896256,-0.577350269189626,-0.5773502691896256],"max":[0.5773502691896256,0.577350269189626,0.5773502691896256]},{"bufferView":52,"componentType":5126,"count":24,"type":"VEC3","min":[-1.438520875,-0.05006901835,3.3517799999999998],"max":[-1.358520875,0.02993098165,3.43178]},{"bufferView":53,"componentType":5126,"count":24,"type":"VEC3","min":[-0.5773502691896255,-0.5773502691896261,-0.5773502691896255],"max":[0.5773502691896255,0.5773502691896261,0.5773502691896255]},{"bufferView":54,"componentType":5126,"count":24,"type":"VEC3","min":[-1.363276725,-0.052234315,3.3676962],"max":[-1.283276725,0.027765685,3.4476962]},{"bufferView":55,"componentType":5126,"count":24,"type":"VEC3","min":[-0.5773502691896255,-0.5773502691896261,-0.5773502691896255],"max":[0.5773502691896255,0.5773502691896261,0.5773502691896255]},{"bufferView":56,"componentType":5126,"count":24,"type":"VEC3","min":[-1.881738575,0.4018678725,3.164408025],"max":[-1.801738575,0.48186787249999996,3.2444080250000003]},{"bufferView":57,"componentType":5126,"count":24,"type":"VEC3","min":[-0.5773502691896255,-0.5773502691896263,-0.5773502691896255],"max":[0.5773502691896255,0.5773502691896263,0.5773502691896255]},{"bufferView":58,"componentType":5126,"count":24,"type":"VEC3","min":[-3.823042875,-0.22678312250000002,1.42752905],"max":[-3.743042875,-0.1467831225,1.50752905]},{"bufferView":59,"componentType":5126,"count":24,"type":"VEC3","min":[-0.5773502691896256,-0.577350269189626,-0.5773502691896256],"max":[0.5773502691896256,0.577350269189626,0.5773502691896256]},{"bufferView":60,"componentType":5126,"count":24,"type":"VEC3","min":[-3.776683725,-0.20642397250000002,1.3749098],"max":[-3.6966837249999998,-0.1264239725,1.4549098]},{"bufferView":61,"componentType":5126,"count":24,"type":"VEC3","min":[-0.5773502691896256,-0.577350269189626,-0.5773502691896256],"max":[0.5773502691896256,0.577350269189626,0.5773502691896256]},{"bufferView":62,"componentType":5126,"count":24,"type":"VEC3","min":[-3.793803625,-0.20865713,1.3537289000000001],"max":[-3.7138036249999997,-0.12865712999999998,1.4337289000000002]},{"bufferView":63,"componentType":5126,"count":24,"type":"VEC3","min":[-0.5773502691896256,-0.577350269189626,-0.5773502691896256],"max":[0.5773502691896256,0.577350269189626,0.5773502691896256]}],"materials":[{"name":"floor","doubleSided":true,"pbrMetallicRoughness":{"baseColorFactor":[0.93,0.93,0.9,1],"metallicFactor":0,"roughnessFactor":0.9}},{"name":"wall","doubleSided":true,"pbrMetallicRoughness":{"baseColorFactor":[0.78,0.81,0.81,1],"metallicFactor":0,"roughnessFactor":0.9}},{"name":"object","doubleSided":true,"pbrMetallicRoughness":{"baseColorFactor":[0.84,0.84,0.8,1],"metallicFactor":0,"roughnessFactor":0.9}},{"name":"marker","doubleSided":true,"pbrMetallicRoughness":{"baseColorFactor":[0.84,0.18,0.14,1],"metallicFactor":0,"roughnessFactor":0.9}}],"extras":{"units":"metres","source":"studio-2-spatial.json","ceilingIncluded":false,"wallDisplayThicknessM":0.06,"wallThicknessIsMeasured":false,"objectsAreCategoryBounds":true,"recordPosition":"four-corner centroid, not saved centre raycast","selectedHomeFixtureRecordIds":["04","10","12"]},"buffers":[{"byteLength":37008,"uri":"data:application/octet-stream;base64,"}]}
